<?xml version="1.0" standalone="no"?><!DOCTYPE svg PUBLIC "-//W3C//DTD SVG 1.1//EN" "http://www.w3.org/Graphics/SVG/1.1/DTD/svg11.dtd"><svg t="1546072171216" class="icon" style="" viewBox="0 0 1024 1024" version="1.1" xmlns="http://www.w3.org/2000/svg" p-id="4204" xmlns:xlink="http://www.w3.org/1999/xlink" width="200" height="200"><defs><style type="text/css"></style></defs><path d="M909 959H115a50 50 0 0 1-50-50V115a50 50 0 0 1 50-50h336l38.248 80H909a50 50 0 0 1 50 50v714a50 50 0 0 1-50 50z m-10-640v-99a15 15 0 0 0-15-15H458.364L416 125H140a15 15 0 0 0-15 15v179h774z m-774 60v505a15 15 0 0 0 15 15h744a15 15 0 0 0 15-15V379H125z" p-id="4205"></path></svg>