<svg t="1707116543440" class="icon" viewBox="0 0 1024 1024" version="1.1" xmlns="http://www.w3.org/2000/svg" p-id="4164" width="200" height="200">
  <path d="M810.666667 85.333333H213.333333C166.4 85.333333 128 123.733333 128 170.666667v682.666666c0 46.933333 38.4 85.333333 85.333333 85.333334h597.333334c46.933333 0 85.333333-38.4 85.333333-85.333334V170.666667c0-46.933333-38.4-85.333333-85.333333-85.333334z m0 768H213.333333V170.666667h597.333334v682.666666z" fill="#409EFF" p-id="4165"></path>
  <path d="M682.666667 298.666667H341.333333c-23.466667 0-42.666667-19.2-42.666666-42.666667s19.2-42.666667 42.666666-42.666667h341.333334c23.466667 0 42.666667 19.2 42.666666 42.666667s-19.2 42.666667-42.666666 42.666667zM682.666667 469.333333H341.333333c-23.466667 0-42.666667-19.2-42.666666-42.666666s19.2-42.666667 42.666666-42.666667h341.333334c23.466667 0 42.666667 19.2 42.666666 42.666667s-19.2 42.666667-42.666666 42.666666zM512 640H341.333333c-23.466667 0-42.666667-19.2-42.666666-42.666667s19.2-42.666667 42.666666-42.666666h170.666667c23.466667 0 42.666667 19.2 42.666667 42.666666s-19.2 42.666667-42.666667 42.666667z" fill="#409EFF" p-id="4166"></path>
</svg> 